<?xml version="1.0" encoding="UTF-8"?>
<svg version="1.1" xmlns="http://www.w3.org/2000/svg" width="294" height="294">
<path d="M0 0 C0.75178528 0.00215515 1.50357056 0.0043103 2.27813721 0.00653076 C13.22915017 0.05692377 23.61844163 0.46013068 34.25 3.3125 C35.013125 3.50585938 35.77625 3.69921875 36.5625 3.8984375 C74.01974621 13.49982023 106.62297474 37.15495392 126.71875 70.32421875 C133.56274461 81.96744162 138.7153786 93.91946091 142.5 106.875 C142.86967896 108.13219849 142.86967896 108.13219849 143.24682617 109.41479492 C146.73314603 121.88625162 147.62900837 134.1829942 147.5625 147.0625 C147.56034485 147.81428528 147.5581897 148.56607056 147.55596924 149.34063721 C147.50557623 160.29165017 147.10236932 170.68094163 144.25 181.3125 C144.05664062 182.075625 143.86328125 182.83875 143.6640625 183.625 C134.06267977 221.08224621 110.40754608 253.68547474 77.23828125 273.78125 C65.59505838 280.62524461 53.64303909 285.7778786 40.6875 289.5625 C39.43030151 289.93217896 39.43030151 289.93217896 38.14770508 290.30932617 C25.67624838 293.79564603 13.3795058 294.69150837 0.5 294.625 C-0.25178528 294.62284485 -1.00357056 294.6206897 -1.77813721 294.61846924 C-12.72915017 294.56807623 -23.11844163 294.16486932 -33.75 291.3125 C-34.513125 291.11914062 -35.27625 290.92578125 -36.0625 290.7265625 C-73.51974621 281.12517977 -106.12297474 257.47004608 -126.21875 224.30078125 C-133.06274461 212.65755838 -138.2153786 200.70553909 -142 187.75 C-142.24645264 186.91186768 -142.49290527 186.07373535 -142.74682617 185.21020508 C-146.23314603 172.73874838 -147.12900837 160.4420058 -147.0625 147.5625 C-147.06034485 146.81071472 -147.0581897 146.05892944 -147.05596924 145.28436279 C-147.00557623 134.33334983 -146.60236932 123.94405837 -143.75 113.3125 C-143.55664062 112.549375 -143.36328125 111.78625 -143.1640625 111 C-133.56267977 73.54275379 -109.90754608 40.93952526 -76.73828125 20.84375 C-65.09505838 13.99975539 -53.14303909 8.8471214 -40.1875 5.0625 C-39.34936768 4.81604736 -38.51123535 4.56959473 -37.64770508 4.31567383 C-25.17624838 0.82935397 -12.8795058 -0.06650837 0 0 Z " fill="#FECB00" transform="translate(146.75,-0.3125)"/>
<path d="M0 0 C26.05946382 -0.51096988 26.05946382 -0.51096988 33.53125 5.4453125 C39.51429539 11.77842969 40.1277902 19.69532597 40.2109375 28.01171875 C40.23902127 29.59050489 40.26768583 31.16928079 40.296875 32.74804688 C40.33794209 35.211828 40.37487011 37.67542107 40.40136719 40.1394043 C40.14264211 53.48337662 40.14264211 53.48337662 44 66 C48.39346398 70.25173934 52.55093862 70.63415068 58.375 70.75 C59.47908203 70.79447266 59.47908203 70.79447266 60.60546875 70.83984375 C62.4030743 70.90988033 64.2015379 70.95728119 66 71 C66 75.29 66 79.58 66 84 C64.60587891 84.05607422 64.60587891 84.05607422 63.18359375 84.11328125 C53.64178856 84.46112873 53.64178856 84.46112873 45 88 C40.64357277 93.51814116 40.86074286 99.65273073 40.82421875 106.4140625 C40.80100543 108.07943951 40.7768875 109.74480412 40.75195312 111.41015625 C40.71701803 114.01001127 40.68758098 116.60941268 40.67407227 119.20947266 C40.53464977 141.70153918 40.53464977 141.70153918 34.5534668 148.69018555 C24.876839 157.2384057 12.06569161 156.26945713 0 156 C0 152.04 0 148.08 0 144 C1.09699219 143.87882813 2.19398438 143.75765625 3.32421875 143.6328125 C4.77868823 143.46390637 6.23311304 143.29461519 7.6875 143.125 C8.40873047 143.04636719 9.12996094 142.96773437 9.87304688 142.88671875 C15.75048241 142.34035642 15.75048241 142.34035642 21 140 C23.75956356 134.18190539 24.42280379 128.47734382 24.37109375 122.125 C24.38846954 120.46353954 24.40605399 118.80208125 24.42382812 117.140625 C24.43388895 114.56701698 24.43749573 111.99354876 24.43579102 109.41992188 C24.46306421 90.35050106 24.46306421 90.35050106 29 84 C31.78728156 81.28240048 34.53984608 79.69342279 38 78 C37.07767578 77.34644531 37.07767578 77.34644531 36.13671875 76.6796875 C29.6727551 71.91676692 26.29018878 68.08220101 25 60 C24.88628909 57.31107134 24.81583688 54.6426027 24.7890625 51.953125 C24.76098434 50.3697815 24.73231981 48.78644831 24.703125 47.203125 C24.66201202 44.73047282 24.6250857 42.25801112 24.59863281 39.78515625 C24.72517434 27.01195925 24.72517434 27.01195925 21 15 C17.1829488 12.3177478 12.24761134 12.57060799 7.6875 12.375 C6.57665039 12.31699219 6.57665039 12.31699219 5.44335938 12.2578125 C3.62928691 12.16418295 1.81467884 12.08103149 0 12 C0 8.04 0 4.08 0 0 Z " fill="#090601" transform="translate(164,66)"/>
<path d="M0 0 C23.76 0 47.52 0 72 0 C72 4.95 72 9.9 72 15 C62.76002129 15.02255261 53.52006072 15.04091601 44.28006077 15.05181217 C39.99000085 15.05704061 35.69996067 15.06413753 31.40991211 15.07543945 C27.273206 15.08626975 23.13651892 15.09227714 18.99979973 15.09487724 C17.41807696 15.09673124 15.83635529 15.10035136 14.25464058 15.10573006 C12.04677162 15.1129424 9.83898227 15.11399086 7.63110352 15.11352539 C5.74247337 15.11685631 5.74247337 15.11685631 3.81568909 15.12025452 C1 15 1 15 0 14 C0 9.38 0 4.76 0 0 Z " fill="#030101" transform="translate(67,153)"/>
<path d="M0 0 C23.76 0 47.52 0 72 0 C72 4.62 72 9.24 72 14 C48.24 14 24.48 14 0 14 C0 9.38 0 4.76 0 0 Z " fill="#010100" transform="translate(67,120)"/>
<path d="M0 0 C23.76 0 47.52 0 72 0 C72 4.62 72 9.24 72 14 C48.24 14 24.48 14 0 14 C0 9.38 0 4.76 0 0 Z M6 3 C4.68 3.33 3.36 3.66 2 4 C2 6.97 2 9.94 2 13 C24.77 13 47.54 13 71 13 C71 10.03 71 7.06 71 4 C70.01 3.01 69.02 2.02 68 1 C66.11280345 1.36707617 66.11280345 1.36707617 64 2 C62.96875 1.814375 61.9375 1.62875 60.875 1.4375 C59.92625 1.293125 58.9775 1.14875 58 1 C57.34 1.66 56.68 2.32 56 3 C53.8359375 3.4140625 53.8359375 3.4140625 51.375 3.625 C50.55773437 3.69976562 49.74046875 3.77453125 48.8984375 3.8515625 C48.27195313 3.90054688 47.64546875 3.94953125 47 4 C47 3.01 47 2.02 47 1 C44.58354218 0.83312552 44.58354218 0.83312552 42 1 C41.34 1.66 40.68 2.32 40 3 C37.8359375 3.4140625 37.8359375 3.4140625 35.375 3.625 C34.55773437 3.69976562 33.74046875 3.77453125 32.8984375 3.8515625 C32.27195312 3.90054688 31.64546875 3.94953125 31 4 C31 3.01 31 2.02 31 1 C28.58354218 0.83312552 28.58354218 0.83312552 26 1 C25.34 1.66 24.68 2.32 24 3 C21.8359375 3.4140625 21.8359375 3.4140625 19.375 3.625 C18.14910156 3.73714844 18.14910156 3.73714844 16.8984375 3.8515625 C16.27195312 3.90054688 15.64546875 3.94953125 15 4 C15 3.01 15 2.02 15 1 C9.9794171 0.49708619 9.9794171 0.49708619 6 3 Z " fill="#1A0800" transform="translate(67,120)"/>
<path d="M0 0 C23.76 0 47.52 0 72 0 C72 4.95 72 9.9 72 15 C62.76002129 15.02255261 53.52006072 15.04091601 44.28006077 15.05181217 C39.99000085 15.05704061 35.69996067 15.06413753 31.40991211 15.07543945 C27.273206 15.08626975 23.13651892 15.09227714 18.99979973 15.09487724 C17.41807696 15.09673124 15.83635529 15.10035136 14.25464058 15.10573006 C12.04677162 15.1129424 9.83898227 15.11399086 7.63110352 15.11352539 C5.74247337 15.11685631 5.74247337 15.11685631 3.81568909 15.12025452 C1 15 1 15 0 14 C0 9.38 0 4.76 0 0 Z M2 2 C2 5.96 2 9.92 2 14 C9.5890161 14.02263403 17.17801954 14.04096311 24.76706123 14.05181217 C28.29133488 14.05702039 31.81558414 14.06408045 35.33984375 14.07543945 C39.39583565 14.08842978 43.45180212 14.09324526 47.5078125 14.09765625 C49.3971904 14.10539818 49.3971904 14.10539818 51.32473755 14.11329651 C52.50550873 14.11337204 53.68627991 14.11344757 54.90283203 14.11352539 C55.93763702 14.115746 56.97244202 14.11796661 58.03860474 14.12025452 C62.22799578 13.9501343 66.02327899 13.32557367 70 12 C70 8.7 70 5.4 70 2 C47.56 2 25.12 2 2 2 Z " fill="#442E00" transform="translate(67,153)"/>
<path d="M0 0 C0.33 0.66 0.66 1.32 1 2 C1.89980087 1.98525131 2.79960175 1.97050262 3.72666931 1.95530701 C12.18806957 1.81750963 20.64952869 1.68453421 29.11109066 1.5570364 C33.46172214 1.49130982 37.81230733 1.42368937 42.1628418 1.35180664 C46.35784138 1.28256236 50.55288957 1.21820673 54.74801826 1.15730476 C56.3520946 1.13314613 57.95614495 1.10719714 59.5601635 1.07946587 C61.79910083 1.04105743 64.03804426 1.00889752 66.27709961 0.97827148 C67.55395126 0.95828598 68.83080292 0.93830048 70.14634705 0.91770935 C73 1 73 1 74 2 C74.07313567 4.53049402 74.09247527 7.03304837 74.0625 9.5625 C74.05798828 10.27341797 74.05347656 10.98433594 74.04882812 11.71679688 C74.03700864 13.47790013 74.01907263 15.23896036 74 17 C73.34 17 72.68 17 72 17 C72 12.38 72 7.76 72 3 C48.24 3 24.48 3 0 3 C0 7.62 0 12.24 0 17 C-0.33 17 -0.66 17 -1 17 C-1.02684679 14.35409986 -1.04676357 11.70846904 -1.0625 9.0625 C-1.07087891 8.30775391 -1.07925781 7.55300781 -1.08789062 6.77539062 C-1.09652441 4.85005687 -1.05224333 2.92464419 -1 1 C-0.67 0.67 -0.34 0.34 0 0 Z " fill="#E1C423" transform="translate(67,117)"/>
<path d="M0 0 C0.66 0 1.32 0 2 0 C1.75902588 0.97501465 1.75902588 0.97501465 1.51318359 1.96972656 C0.86259588 5.81135108 0.82555653 9.59989969 0.7890625 13.484375 C0.76098538 15.1588638 0.73232086 16.83334283 0.703125 18.5078125 C0.66199691 21.12532178 0.62507424 23.74265044 0.59863281 26.36035156 C0.57078629 28.90206726 0.52491501 31.44297712 0.4765625 33.984375 C0.47330963 34.75344177 0.47005676 35.52250854 0.46670532 36.31488037 C0.34362211 41.84232682 -0.60089793 46.97236611 -3 52 C-3.99 52.495 -3.99 52.495 -5 53 C-4.125 47.25 -4.125 47.25 -3 45 C-2.86679107 41.98621824 -2.78991997 38.99181233 -2.75390625 35.9765625 C-2.72096765 34.13280776 -2.68775601 32.28905787 -2.65429688 30.4453125 C-2.60687614 27.53323721 -2.56244853 24.62118162 -2.52319336 21.70898438 C-2.48346928 18.90213353 -2.43192461 16.09568928 -2.37890625 13.2890625 C-2.3704921 12.4191568 -2.36207794 11.5492511 -2.35340881 10.65298462 C-2.33676682 9.8388913 -2.32012482 9.02479797 -2.30297852 8.18603516 C-2.29267105 7.47258942 -2.28236359 6.75914368 -2.27174377 6.02407837 C-1.95822771 3.68885987 -1.15160149 2.04055294 0 0 Z " fill="#DBB825" transform="translate(189,154)"/>
<path d="M0 0 C2.43704166 0.96100573 3.73389673 1.52543422 5.03657532 3.84861755 C6.76170438 9.34725578 7.40965175 14.22377022 7.29296875 19.97265625 C7.28872391 20.78117538 7.28447906 21.58969452 7.28010559 22.42271423 C7.26350035 24.96966873 7.22588533 27.5157904 7.1875 30.0625 C7.17242958 31.80402492 7.15874534 33.54556241 7.14648438 35.28710938 C7.11365684 39.52505361 7.06200455 43.76238632 7 48 C6.34 48 5.68 48 5 48 C4.98598145 46.22955322 4.98598145 46.22955322 4.97167969 44.42333984 C4.93169352 40.02843002 4.86591085 35.63421387 4.79248047 31.23974609 C4.7643208 29.34074846 4.74308142 27.4416347 4.72900391 25.54248047 C4.70750482 22.80636362 4.66081992 20.07163548 4.609375 17.3359375 C4.60814636 16.49195404 4.60691772 15.64797058 4.60565186 14.77841187 C4.46830355 9.20345957 3.40222314 6.40730996 0 2 C0 1.34 0 0.68 0 0 Z " fill="#D9B52B" transform="translate(182,79)"/>
<path d="M0 0 C0.495 0.99 0.495 0.99 1 2 C-1.90804598 6.22988506 -1.90804598 6.22988506 -4 8 C-7.75 8.3125 -7.75 8.3125 -11 8 C-11.33 8.33 -11.66 8.66 -12 9 C-13.63472882 9.08700342 -15.27314055 9.10701063 -16.91015625 9.09765625 C-17.89951172 9.09443359 -18.88886719 9.09121094 -19.90820312 9.08789062 C-20.94912109 9.07951172 -21.99003906 9.07113281 -23.0625 9.0625 C-24.10728516 9.05798828 -25.15207031 9.05347656 -26.22851562 9.04882812 C-28.8190666 9.03699913 -31.40950559 9.02051689 -34 9 C-34 8.67 -34 8.34 -34 8 C-32.98421875 7.96261719 -31.9684375 7.92523438 -30.921875 7.88671875 C-14.43723279 7.24016514 -14.43723279 7.24016514 0 0 Z " fill="#E9C322" transform="translate(198,214)"/>
<path d="M0 0 C1.65322266 0.01740234 1.65322266 0.01740234 3.33984375 0.03515625 C4.99693359 0.04869141 4.99693359 0.04869141 6.6875 0.0625 C7.54214844 0.07410156 8.39679688 0.08570313 9.27734375 0.09765625 C9.27734375 0.75765625 9.27734375 1.41765625 9.27734375 2.09765625 C11.19546875 2.03578125 11.19546875 2.03578125 13.15234375 1.97265625 C15.33203125 1.90234375 15.33203125 1.90234375 17.27734375 2.09765625 C17.93734375 2.75765625 18.59734375 3.41765625 19.27734375 4.09765625 C12.01734375 3.76765625 4.75734375 3.43765625 -2.72265625 3.09765625 C-2.72265625 6.72765625 -2.72265625 10.35765625 -2.72265625 14.09765625 C-3.05265625 14.09765625 -3.38265625 14.09765625 -3.72265625 14.09765625 C-3.74951563 11.95188988 -3.76898713 9.8060298 -3.78515625 7.66015625 C-3.79675781 6.46519531 -3.80835938 5.27023438 -3.8203125 4.0390625 C-3.69060839 0.13237476 -3.69060839 0.13237476 0 0 Z " fill="#DCB719" transform="translate(166.72265625,62.90234375)"/>
<path d="M0 0 C1.6396875 0.0928125 1.6396875 0.0928125 3.3125 0.1875 C3.3125 0.5175 3.3125 0.8475 3.3125 1.1875 C6.8344721 1.26754482 9.93231469 1.22755702 13.3125 0.1875 C13.3125 0.8475 13.3125 1.5075 13.3125 2.1875 C14.3025 2.5175 15.2925 2.8475 16.3125 3.1875 C8.7225 3.1875 1.1325 3.1875 -6.6875 3.1875 C-3.6875 0.1875 -3.6875 0.1875 0 0 Z " fill="#130001" transform="translate(76.6875,163.8125)"/>
<path d="M0 0 C4.455 1.98 4.455 1.98 9 4 C6.37801226 6.15377564 4.35595828 7.40072174 1 8 C1.33 6.02 1.66 4.04 2 2 C1.34 2 0.68 2 0 2 C0 1.34 0 0.68 0 0 Z " fill="#DEBE2A" transform="translate(195,139)"/>
<path d="M0 0 C0 0.66 0 1.32 0 2 C0.99 2.33 1.98 2.66 3 3 C-1.29 3 -5.58 3 -10 3 C-10 2.67 -10 2.34 -10 2 C-3.375 0 -3.375 0 0 0 Z " fill="#130001" transform="translate(106,164)"/>
<path d="M0 0 C2.45234885 0.98093954 3.7809268 1.68703828 5.3125 3.875 C6.12082372 6.37345514 5.71847013 7.52928976 5 10 C4.16121545 8.71186658 3.32913217 7.41936744 2.5 6.125 C2.0359375 5.40570313 1.571875 4.68640625 1.09375 3.9453125 C0 2 0 2 0 0 Z " fill="#D8B625" transform="translate(182,79)"/>
<path d="M0 0 C4.85077588 1.11940982 7.777893 2.1334716 11 6 C8.69 5.34 6.38 4.68 4 4 C4 3.34 4 2.68 4 2 C2.68 2 1.36 2 0 2 C0 1.34 0 0.68 0 0 Z " fill="#2D1E01" transform="translate(187,67)"/>
<path d="M0 0 C0.33 0 0.66 0 1 0 C0.38461538 7.50769231 0.38461538 7.50769231 -1.5625 10 C-2.036875 10.33 -2.51125 10.66 -3 11 C-2.44894091 7.0507432 -1.61064629 3.65079826 0 0 Z " fill="#EAC321" transform="translate(187,196)"/>
</svg>